#!OML:ASF E:/inclinewalkrobotboard/Project1/Captureday1/Session1/subject1.ASF
:FULLY-SPECIFIED
:DEGREES
13
root 0 0 0 -1.1781414786932802 -2.846092211423712 -0.8900651501371853
lowerback 10.943823393092197 0.5619846860205895 0.4807839034979032
upperback -1.0979928299541295 0.8806527661212873 0.9201763751932166
thorax -7.2691152108582795 0.40473919478212117 0.45326197850954075
lowerneck -13.444801241077169 -1.4253643102027613 0.19291260279800676
upperneck 19.051364585290408 -1.4291215368873464 -2.3144941734105147
head 8.218959789549888 -0.82026971237504 -0.9917227526952679
rclavicle -4.651336165335129E-16 -2.2275666894909785E-16
rhumerus -11.911310946237613 -6.855240320635108 -67.36528317526813
rradius 42.810684229128675
rwrist 11.943863994411265
rhand -23.55417184194095 -5.2909191415630765
rfingers 7.125020000000134
rthumb 3.15089501560823 -35.443471488329905
lclavicle -9.923306684529404E-16 -7.925568798977869E-16
lhumerus -12.878973232619032 -3.9892322870640147 69.04280247760612
lradius 43.28334879409124
lwrist -4.817056353930603
lhand -33.15158328171611 -9.868902252256413
lfingers 7.125020000000132
lthumb -6.451317647726372 19.204777140147904
rfemur 5.379330768881612 4.867419845691904 32.9353726315526
rtibia 52.33152087261071
rfoot -5.279837526665604 -0.7349792718373038
rtoes 10.543215696215524
lfemur -5.319226044582219 -5.5892700837727745 -23.39217127371322
ltibia 6.869439995811433
lfoot -15.204446957586988 4.986557230059747
ltoes -0.08252421240158991
14
root 0 0 0 -1.1823869212964442 -2.8442178443691866 -0.8949102461091027
lowerback 10.9419342070632 0.5611806296601161 0.4815919793488035
upperback -1.091589739937733 0.8803587465490134 0.9229259079258143
thorax -7.2612280400365306 0.40441795466612 0.45592789214382967
lowerneck -13.457247124907319 -1.4309779034286105 0.18497909188239753
upperneck 19.051167444358768 -1.4384505954405156 -2.304191447442542
head 8.221200949616536 -0.8240219208731574 -0.987673353585061
rclavicle -4.651514111740859E-16 -2.0978047169661902E-16
rhumerus -12.110497218579233 -6.988328061166603 -67.48685090711781
rradius 42.623640489410924
rwrist 11.8505106831486
rhand -23.487783996960584 -4.964220331453886
rfingers 7.125020000000135
rthumb 3.2186620599161992 -35.12605079612775
lclavicle -9.959499357769057E-16 -7.929875623674579E-16
lhumerus -12.923809535129609 -3.978965139440368 69.07609155188808
lradius 43.24518474405974
lwrist -4.7889698739785596
lhand -33.13516332894902 -9.7762367680232
lfingers 7.1250200000001325
lthumb -6.435592662589889 19.2883168320029
rfemur -1.0958681224637825 3.1944689579882612 29.729141180001
rtibia 59.90402931782468
rfoot -1.0150081138555045 -1.1280504792644832
rtoes 11.211997403035049
lfemur 1.3011629952056794 -5.616358347244404 -26.073897342487225
ltibia 6.526876204359191
lfoot -15.808555256347242 3.3617415543415996
ltoes -0.7880138049063525
15
root 0 0 0 -1.1805591938820486 -2.844348151299405 -0.8931399651907543
lowerback 10.942495463896295 0.5611987194421417 0.48036220764919924
upperback -1.0934772064654057 0.880468906130924 0.9220472891977687
thorax -7.263844992861317 0.40446630189809163 0.4553764977505629
lowerneck -13.452216246971002 -1.4289205801671823 0.18762968201480168
upperneck 19.050778336585967 -1.435727816018252 -2.308605085914747
head 8.220322722583514 -0.8227330663772966 -0.9891626783779451
rclavicle -4.643615227569082E-16 -2.0661803798267002E-16
rhumerus -12.135989676839959 -7.005478706409232 -67.50167540715888
rradius 42.60155671372454
rwrist 11.839404231399108
rhand -23.479817577522503 -4.924021356617879
rfingers 7.125020000000135
rthumb 3.226970923903176 -35.0875931992035
lclavicle -9.937535065561841E-16 -7.942568689290049E-16
lhumerus -12.844014740665585 -3.9981747241390817 69.01986834001468
lradius 43.30856423790265
lwrist -4.832200601633265
lhand -33.16172929448754 -9.917192440748721
lfingers 7.125020000000132
lthumb -6.461169276614227 19.141245987027155
rfemur -6.4256168280967465 2.002186034313822 27.21824965282831
rtibia 64.71245251023913
rfoot 1.7685235125526955 -1.6450513143277439
rtoes 11.331832687083931
lfemur 4.718701538783444 -5.51338564066146 -27.396401518721994
ltibia 7.163693815192218
lfoot -15.841999869528747 2.2317260338533425
ltoes -1.2296567173289459
16
root 0 0 0 -1.1752875991227874 -2.845425450844876 -0.8877451669389416
lowerback 10.944359484771269 0.5615891813536092 0.47792337250697786
upperback -1.0997353405927577 0.8806873801884041 0.9192341136619985
thorax -7.272232336335603 0.40470330813392946 0.4531351622277231
lowerneck -13.43752131323934 -1.422729222975266 0.1961325832310677
upperneck 19.050056658292515 -1.4266602173816674 -2.3211730004343645
head 8.2177478697511 -0.8187555754239675 -0.9937239993602149
rclavicle -4.625366665710201E-16 -2.0770672415385983E-16
rhumerus -12.085839352532748 -6.972514260531666 -67.46980544650759
rradius 42.65167427458798
rwrist 11.864212980122362
rhand -23.497369513996663 -5.009090241800101
rfingers 7.125020000000135
rthumb 3.2091505664419904 -35.172353524419826
lclavicle -9.887894139382512E-16 -7.969500586777276E-16
lhumerus -12.670557930608535 -4.039891648386474 68.89658414289548
lradius 43.44722374620105
lwrist -4.927955839162483
lhand -33.220307513311596 -10.231500798826646
lfingers 7.125020000000131
lthumb -6.517822429301721 18.823466763672972
rfemur -11.945713903685586 0.9981557699254944 24.77413146340123
rtibia 67.99151699210518
rfoot 3.8979061775693253 -2.38348861240502
rtoes 11.032481639177195
lfemur 7.448810542067287 -5.343914045317018 -28.415364601466656
ltibia 8.243533096850129
lfoot -15.71473240075051 1.1354815714722903
ltoes -1.6737157510898024
